<?xml version="1.0" encoding="UTF-8" standalone="no"?>
<svg
   version="1.0"
   width="450.29999"
   height="450.70001"
   viewBox="0 0 450.29999 450.70001"
   preserveAspectRatio="xMidYMid"
   xmlns="http://www.w3.org/2000/svg">
  <g
     fill="#ffffff"
     transform="translate(-99,-107.3)">
    <path
       d="m 115.3,551.7 -6.2,-6.2 -0.5,-16.5 c -0.3,-9.1 -0.9,-30.6 -1.2,-47.7 L 106.7,450 h 6.4 c 8.6,-0.1 38.8,-0.8 88.9,-2 22.8,-0.6 61.5,-1.5 86,-2 74.4,-1.7 126.4,-3.1 126.7,-3.4 0.4,-0.4 -37,-36.5 -67.7,-65.5 l -5.5,-5.2 -16.5,0.5 c -9.1,0.3 -30.2,0.9 -47.1,1.2 l -30.5,0.6 -9.2,-8.8 -9.2,-8.9 -1.1,-47.5 -1.2,-47.5 -8.1,-7.8 -8.1,-7.8 -22.5,0.6 c -12.4,0.3 -33.5,0.8 -47,1.1 l -24.5,0.6 -7.7,-7.3 -7.6,-7.4 -1.1,-49 C 99.5,157.6 99,131.3 99,126.3 V 117 h 10.8 c 5.9,0 33.6,-0.5 61.5,-1.2 l 50.8,-1.2 4.3,4.5 4.4,4.4 0.6,22.5 c 0.3,12.4 0.9,36.4 1.2,53.5 l 0.6,31 5.7,5.8 5.6,5.8 34,-0.6 c 18.7,-0.4 35.8,-0.8 38,-1 2.2,-0.2 12.3,-0.5 22.4,-0.5 14.4,-0.1 18.6,0.1 19.1,1.2 0.4,0.7 1,17.7 1.4,37.8 0.3,20.1 0.9,44.8 1.2,55 l 0.6,18.5 3.7,3.4 c 6.2,5.8 58.7,56.1 66.7,63.8 2,2 4.3,1.6 3.1,-0.4 -0.3,-0.5 -0.8,-19 -1.1,-41.3 -0.4,-22.3 -0.8,-43.9 -1.1,-48 -0.2,-4.1 -0.7,-19.6 -1,-34.5 -0.3,-14.8 -1.2,-55 -2.1,-89.1 -0.8,-34.2 -1.5,-66.7 -1.6,-72.4 l -0.1,-10.2 7.2,-7.1 7.1,-7.2 48.7,-1.1 c 26.9,-0.7 48.9,-1.1 48.9,-1.1 0.1,0.1 0.4,12.8 0.8,28.2 0.4,15.4 1.1,46.2 1.6,68.5 0.5,22.3 1.2,51.5 1.5,65 0.3,13.5 0.7,31.3 1,39.5 0.3,8.3 0.7,26.7 1,41 1,51.2 1.5,73.2 2,85 0.3,6.6 0.8,28.1 1.1,47.8 l 0.7,35.7 -10.6,10.8 c -5.8,5.9 -12.5,12.8 -14.9,15.4 l -4.3,4.6 -19,0.6 c -26.3,0.8 -50.6,1.5 -80,2.1 -13.7,0.3 -52.2,1.2 -85.5,2 -33.3,0.8 -74.4,1.7 -91.5,2 -17,0.3 -34.6,0.8 -39,1 -4.4,0.2 -24.9,0.7 -45.5,1 l -37.5,0.5 z m 73.6,-329.4 20.3,-0.6 -0.6,-24.6 c -0.4,-13.5 -0.9,-30.3 -1.2,-37.3 l -0.6,-12.7 -4.9,-4.4 -4.8,-4.4 -22.8,0.4 c -12.5,0.2 -29.2,0.6 -37.1,0.9 l -14.3,0.6 0.6,18.2 c 0.3,9.9 0.8,26 1.1,35.6 l 0.5,17.5 5.7,5.8 5.6,5.7 h 16.1 c 8.8,0 25.2,-0.3 36.4,-0.7 z" />
  </g>
</svg>
